<mxfile host="app.diagrams.net" modified="2023-05-12T15:22:09.123Z" agent="Mozilla/5.0 (Windows NT 10.0; Win64; x64) AppleWebKit/537.36 (KHTML, like Gecko) Chrome/113.0.0.0 Safari/537.36" etag="tYl83wFW4wY1u0q58d3V" version="21.2.9" type="github">
  <diagram name="Page-1" id="2c0d36ab-eaac-3732-788b-9136903baeff">
    <mxGraphModel dx="2493" dy="1462" grid="0" gridSize="10" guides="1" tooltips="1" connect="1" arrows="1" fold="1" page="1" pageScale="1.5" pageWidth="2336" pageHeight="1654" background="none" math="0" shadow="0">
      <root>
        <mxCell id="0" />
        <mxCell id="1" parent="0" />
        <mxCell id="H5y6Pi-Pe29ZSDLJuI9i-181" value="" style="fillColor=#60a917;strokeColor=#2D7600;opacity=30;fontColor=#ffffff;" vertex="1" parent="1">
          <mxGeometry x="2285.5" y="320" width="259" height="450" as="geometry" />
        </mxCell>
        <mxCell id="H5y6Pi-Pe29ZSDLJuI9i-180" value="" style="fillColor=#60a917;strokeColor=#2D7600;opacity=30;fontColor=#ffffff;" vertex="1" parent="1">
          <mxGeometry x="1825" y="323" width="259" height="114" as="geometry" />
        </mxCell>
        <mxCell id="H5y6Pi-Pe29ZSDLJuI9i-176" value="" style="fillColor=#F2931E;strokeColor=none;opacity=30;" vertex="1" parent="1">
          <mxGeometry x="1867" y="635" width="164" height="180" as="geometry" />
        </mxCell>
        <mxCell id="H5y6Pi-Pe29ZSDLJuI9i-175" value="" style="fillColor=#60a917;strokeColor=#2D7600;opacity=30;fontColor=#ffffff;" vertex="1" parent="1">
          <mxGeometry x="1867" y="462.5" width="166" height="166.5" as="geometry" />
        </mxCell>
        <mxCell id="H5y6Pi-Pe29ZSDLJuI9i-174" value="" style="fillColor=#60a917;strokeColor=#2D7600;opacity=30;fontColor=#ffffff;" vertex="1" parent="1">
          <mxGeometry x="2053" y="464" width="170" height="276" as="geometry" />
        </mxCell>
        <mxCell id="H5y6Pi-Pe29ZSDLJuI9i-168" style="edgeStyle=orthogonalEdgeStyle;rounded=0;orthogonalLoop=1;jettySize=auto;html=1;exitX=0.5;exitY=1;exitDx=0;exitDy=0;entryX=0.5;entryY=0;entryDx=0;entryDy=0;" edge="1" parent="1" source="12" target="H5y6Pi-Pe29ZSDLJuI9i-155">
          <mxGeometry relative="1" as="geometry">
            <mxPoint x="1136" y="430" as="sourcePoint" />
          </mxGeometry>
        </mxCell>
        <mxCell id="vWh9--QGINDRUbVDUfh1-166" value="" style="fillColor=#10739E;strokeColor=none;opacity=30;" parent="1" vertex="1">
          <mxGeometry x="1030" y="320" width="270" height="110" as="geometry" />
        </mxCell>
        <mxCell id="114" value="" style="fillColor=#10739E;strokeColor=none;opacity=30;" parent="1" vertex="1">
          <mxGeometry x="378" y="320" width="280" height="110" as="geometry" />
        </mxCell>
        <mxCell id="vWh9--QGINDRUbVDUfh1-168" value="" style="fillColor=#10739E;strokeColor=none;opacity=30;" parent="1" vertex="1">
          <mxGeometry x="1055" y="175" width="230" height="110" as="geometry" />
        </mxCell>
        <mxCell id="122" value="" style="fillColor=#10739E;strokeColor=none;opacity=30;" parent="1" vertex="1">
          <mxGeometry x="125" y="1180" width="1470" height="99.99999999999994" as="geometry" />
        </mxCell>
        <mxCell id="113" value="" style="fillColor=#10739E;strokeColor=none;opacity=30;" parent="1" vertex="1">
          <mxGeometry x="1620" y="1050" width="160" height="80" as="geometry" />
        </mxCell>
        <mxCell id="109" value="" style="fillColor=#12AAB5;strokeColor=none;opacity=30;" parent="1" vertex="1">
          <mxGeometry x="845" y="1050" width="500" height="80" as="geometry" />
        </mxCell>
        <mxCell id="vWh9--QGINDRUbVDUfh1-158" style="edgeStyle=orthogonalEdgeStyle;rounded=0;orthogonalLoop=1;jettySize=auto;html=1;exitX=0.5;exitY=1;exitDx=0;exitDy=0;entryX=0.5;entryY=0;entryDx=0;entryDy=0;" parent="1" source="2" target="10" edge="1">
          <mxGeometry relative="1" as="geometry" />
        </mxCell>
        <mxCell id="vWh9--QGINDRUbVDUfh1-165" style="edgeStyle=orthogonalEdgeStyle;rounded=0;orthogonalLoop=1;jettySize=auto;html=1;exitX=1;exitY=0.5;exitDx=0;exitDy=0;entryX=1;entryY=0.5;entryDx=0;entryDy=0;strokeWidth=2;" parent="1" source="2" target="vWh9--QGINDRUbVDUfh1-153" edge="1">
          <mxGeometry relative="1" as="geometry" />
        </mxCell>
        <mxCell id="vWh9--QGINDRUbVDUfh1-172" style="edgeStyle=orthogonalEdgeStyle;rounded=0;orthogonalLoop=1;jettySize=auto;html=1;exitX=1;exitY=0.5;exitDx=0;exitDy=0;entryX=1;entryY=0.5;entryDx=0;entryDy=0;strokeWidth=2;" parent="1" source="2" target="vWh9--QGINDRUbVDUfh1-169" edge="1">
          <mxGeometry relative="1" as="geometry" />
        </mxCell>
        <mxCell id="2" value="ARGO Home" style="rounded=1;fillColor=#23445D;gradientColor=none;strokeColor=none;fontColor=#FFFFFF;fontStyle=1;fontFamily=Tahoma;fontSize=14" parent="1" vertex="1">
          <mxGeometry x="1075" y="190" width="190" height="80" as="geometry" />
        </mxCell>
        <mxCell id="vWh9--QGINDRUbVDUfh1-154" value="" style="edgeStyle=orthogonalEdgeStyle;rounded=0;orthogonalLoop=1;jettySize=auto;html=1;" parent="1" source="4" target="vWh9--QGINDRUbVDUfh1-153" edge="1">
          <mxGeometry relative="1" as="geometry" />
        </mxCell>
        <mxCell id="4" value="회원가입" style="rounded=1;fillColor=#23445D;gradientColor=none;strokeColor=none;fontColor=#FFFFFF;fontStyle=1;fontFamily=Tahoma;fontSize=14" parent="1" vertex="1">
          <mxGeometry x="2320" y="344" width="190" height="80" as="geometry" />
        </mxCell>
        <mxCell id="9" value="" style="edgeStyle=elbowEdgeStyle;elbow=vertical;strokeWidth=2;rounded=0" parent="1" source="2" target="4" edge="1">
          <mxGeometry x="580" y="220" width="100" height="100" as="geometry">
            <mxPoint x="580" y="320" as="sourcePoint" />
            <mxPoint x="680" y="220" as="targetPoint" />
            <Array as="points">
              <mxPoint x="1610" y="305" />
              <mxPoint x="1380" y="305" />
            </Array>
          </mxGeometry>
        </mxCell>
        <mxCell id="H5y6Pi-Pe29ZSDLJuI9i-146" style="edgeStyle=orthogonalEdgeStyle;rounded=0;orthogonalLoop=1;jettySize=auto;html=1;exitX=0.5;exitY=1;exitDx=0;exitDy=0;entryX=0.5;entryY=0;entryDx=0;entryDy=0;" edge="1" parent="1" source="10" target="H5y6Pi-Pe29ZSDLJuI9i-127">
          <mxGeometry relative="1" as="geometry" />
        </mxCell>
        <mxCell id="H5y6Pi-Pe29ZSDLJuI9i-147" style="edgeStyle=orthogonalEdgeStyle;rounded=0;orthogonalLoop=1;jettySize=auto;html=1;exitX=0.5;exitY=1;exitDx=0;exitDy=0;entryX=0.5;entryY=0;entryDx=0;entryDy=0;" edge="1" parent="1" source="10" target="H5y6Pi-Pe29ZSDLJuI9i-138">
          <mxGeometry relative="1" as="geometry" />
        </mxCell>
        <mxCell id="10" value="유학 CLASS" style="rounded=1;fillColor=#23445D;gradientColor=none;strokeColor=none;fontColor=#FFFFFF;fontStyle=1;fontFamily=Tahoma;fontSize=14" parent="1" vertex="1">
          <mxGeometry x="1855" y="340" width="190" height="80" as="geometry" />
        </mxCell>
        <mxCell id="H5y6Pi-Pe29ZSDLJuI9i-169" style="edgeStyle=orthogonalEdgeStyle;rounded=0;orthogonalLoop=1;jettySize=auto;html=1;exitX=0.5;exitY=1;exitDx=0;exitDy=0;entryX=0.5;entryY=0;entryDx=0;entryDy=0;" edge="1" parent="1" source="12" target="H5y6Pi-Pe29ZSDLJuI9i-153">
          <mxGeometry relative="1" as="geometry" />
        </mxCell>
        <mxCell id="H5y6Pi-Pe29ZSDLJuI9i-171" style="edgeStyle=orthogonalEdgeStyle;rounded=0;orthogonalLoop=1;jettySize=auto;html=1;exitX=0.5;exitY=1;exitDx=0;exitDy=0;entryX=0.5;entryY=0;entryDx=0;entryDy=0;" edge="1" parent="1">
          <mxGeometry relative="1" as="geometry">
            <mxPoint x="1170" y="418" as="sourcePoint" />
            <mxPoint x="1486" y="469" as="targetPoint" />
            <Array as="points">
              <mxPoint x="1170" y="447" />
              <mxPoint x="1486" y="447" />
            </Array>
          </mxGeometry>
        </mxCell>
        <mxCell id="H5y6Pi-Pe29ZSDLJuI9i-172" style="edgeStyle=orthogonalEdgeStyle;rounded=0;orthogonalLoop=1;jettySize=auto;html=1;exitX=0.5;exitY=1;exitDx=0;exitDy=0;" edge="1" parent="1" source="12" target="H5y6Pi-Pe29ZSDLJuI9i-149">
          <mxGeometry relative="1" as="geometry" />
        </mxCell>
        <mxCell id="H5y6Pi-Pe29ZSDLJuI9i-173" style="edgeStyle=orthogonalEdgeStyle;rounded=0;orthogonalLoop=1;jettySize=auto;html=1;exitX=0.5;exitY=1;exitDx=0;exitDy=0;entryX=0.5;entryY=0;entryDx=0;entryDy=0;" edge="1" parent="1" source="12" target="H5y6Pi-Pe29ZSDLJuI9i-157">
          <mxGeometry relative="1" as="geometry" />
        </mxCell>
        <mxCell id="12" value="선배들과의 대화하기" style="rounded=1;fillColor=#23445D;gradientColor=none;strokeColor=none;fontColor=#FFFFFF;fontStyle=1;fontFamily=Tahoma;fontSize=14" parent="1" vertex="1">
          <mxGeometry x="1075" y="340" width="190" height="80" as="geometry" />
        </mxCell>
        <mxCell id="vWh9--QGINDRUbVDUfh1-133" style="edgeStyle=orthogonalEdgeStyle;rounded=0;orthogonalLoop=1;jettySize=auto;html=1;exitX=0.5;exitY=1;exitDx=0;exitDy=0;entryX=0.5;entryY=0;entryDx=0;entryDy=0;" parent="1" source="13" target="16" edge="1">
          <mxGeometry relative="1" as="geometry" />
        </mxCell>
        <mxCell id="vWh9--QGINDRUbVDUfh1-135" style="edgeStyle=orthogonalEdgeStyle;rounded=0;orthogonalLoop=1;jettySize=auto;html=1;exitX=0.5;exitY=1;exitDx=0;exitDy=0;entryX=0.5;entryY=0;entryDx=0;entryDy=0;" parent="1" source="13" target="17" edge="1">
          <mxGeometry relative="1" as="geometry" />
        </mxCell>
        <mxCell id="13" value="아르고 유학가기" style="rounded=1;fillColor=#23445D;gradientColor=none;strokeColor=none;fontColor=#FFFFFF;fontStyle=1;fontFamily=Tahoma;fontSize=14" parent="1" vertex="1">
          <mxGeometry x="428" y="340" width="190" height="80" as="geometry" />
        </mxCell>
        <mxCell id="16" value="아르고 인증이란" style="rounded=1;fillColor=#23445D;gradientColor=none;strokeColor=none;fontColor=#FFFFFF;fontStyle=1;fontFamily=Tahoma;fontSize=14" parent="1" vertex="1">
          <mxGeometry x="368" y="460" width="130" height="60" as="geometry" />
        </mxCell>
        <mxCell id="vWh9--QGINDRUbVDUfh1-130" style="edgeStyle=orthogonalEdgeStyle;rounded=0;orthogonalLoop=1;jettySize=auto;html=1;exitX=0.5;exitY=1;exitDx=0;exitDy=0;entryX=0.5;entryY=0;entryDx=0;entryDy=0;" parent="1" source="17" target="vWh9--QGINDRUbVDUfh1-126" edge="1">
          <mxGeometry relative="1" as="geometry" />
        </mxCell>
        <mxCell id="17" value="아르고 유학원 상담" style="rounded=1;fillColor=#23445D;gradientColor=none;strokeColor=none;fontColor=#FFFFFF;fontStyle=1;fontFamily=Tahoma;fontSize=14" parent="1" vertex="1">
          <mxGeometry x="538" y="460" width="150" height="60" as="geometry" />
        </mxCell>
        <mxCell id="59" value="" style="edgeStyle=elbowEdgeStyle;elbow=vertical;strokeWidth=2;rounded=0" parent="1" source="2" target="12" edge="1">
          <mxGeometry x="590" y="230" width="100" height="100" as="geometry">
            <mxPoint x="1105" y="280" as="sourcePoint" />
            <mxPoint x="1709.9999999999998" y="350" as="targetPoint" />
          </mxGeometry>
        </mxCell>
        <mxCell id="61" value="" style="edgeStyle=elbowEdgeStyle;elbow=vertical;strokeWidth=2;rounded=0" parent="1" source="2" target="13" edge="1">
          <mxGeometry x="220" y="140" width="100" height="100" as="geometry">
            <mxPoint x="220" y="240" as="sourcePoint" />
            <mxPoint x="320" y="140" as="targetPoint" />
          </mxGeometry>
        </mxCell>
        <mxCell id="103" value="" style="edgeStyle=elbowEdgeStyle;elbow=vertical;strokeWidth=2;rounded=0;entryX=0.5;entryY=0;entryDx=0;entryDy=0;" parent="1" source="10" target="H5y6Pi-Pe29ZSDLJuI9i-132" edge="1">
          <mxGeometry x="612" y="140" width="100" height="100" as="geometry">
            <mxPoint x="612" y="240" as="sourcePoint" />
            <mxPoint x="1677" y="460" as="targetPoint" />
          </mxGeometry>
        </mxCell>
        <mxCell id="vWh9--QGINDRUbVDUfh1-126" value="대화하기" style="whiteSpace=wrap;html=1;fontSize=14;fontFamily=Tahoma;fillColor=#23445D;strokeColor=none;fontColor=#FFFFFF;rounded=1;gradientColor=none;fontStyle=1;" parent="1" vertex="1">
          <mxGeometry x="553" y="583" width="120" height="60" as="geometry" />
        </mxCell>
        <mxCell id="vWh9--QGINDRUbVDUfh1-156" value="" style="edgeStyle=orthogonalEdgeStyle;rounded=0;orthogonalLoop=1;jettySize=auto;html=1;" parent="1" source="vWh9--QGINDRUbVDUfh1-153" target="vWh9--QGINDRUbVDUfh1-155" edge="1">
          <mxGeometry relative="1" as="geometry" />
        </mxCell>
        <mxCell id="vWh9--QGINDRUbVDUfh1-175" style="edgeStyle=orthogonalEdgeStyle;rounded=0;orthogonalLoop=1;jettySize=auto;html=1;exitX=0;exitY=0.5;exitDx=0;exitDy=0;entryX=0;entryY=0.5;entryDx=0;entryDy=0;" parent="1" source="vWh9--QGINDRUbVDUfh1-153" target="vWh9--QGINDRUbVDUfh1-169" edge="1">
          <mxGeometry relative="1" as="geometry" />
        </mxCell>
        <mxCell id="vWh9--QGINDRUbVDUfh1-153" value="로그인" style="rounded=1;fillColor=#23445D;gradientColor=none;strokeColor=none;fontColor=#FFFFFF;fontStyle=1;fontFamily=Tahoma;fontSize=14" parent="1" vertex="1">
          <mxGeometry x="2320" y="451" width="190" height="80" as="geometry" />
        </mxCell>
        <mxCell id="vWh9--QGINDRUbVDUfh1-155" value="멘토등록" style="rounded=1;fillColor=#23445D;gradientColor=none;strokeColor=none;fontColor=#FFFFFF;fontStyle=1;fontFamily=Tahoma;fontSize=14" parent="1" vertex="1">
          <mxGeometry x="2320" y="564" width="190" height="80" as="geometry" />
        </mxCell>
        <mxCell id="vWh9--QGINDRUbVDUfh1-169" value="마이페이지" style="rounded=1;fillColor=#23445D;gradientColor=none;strokeColor=none;fontColor=#FFFFFF;fontStyle=1;fontFamily=Tahoma;fontSize=14" parent="1" vertex="1">
          <mxGeometry x="2320" y="676" width="190" height="80" as="geometry" />
        </mxCell>
        <mxCell id="H5y6Pi-Pe29ZSDLJuI9i-123" value="" style="fillColor=#60a917;strokeColor=#2D7600;opacity=30;fontColor=#ffffff;" vertex="1" parent="1">
          <mxGeometry x="1625" y="460" width="190" height="276" as="geometry" />
        </mxCell>
        <mxCell id="H5y6Pi-Pe29ZSDLJuI9i-124" value="" style="fillColor=#F2931E;strokeColor=none;opacity=30;" vertex="1" parent="1">
          <mxGeometry x="989" y="732" width="179" height="104" as="geometry" />
        </mxCell>
        <mxCell id="H5y6Pi-Pe29ZSDLJuI9i-125" style="edgeStyle=orthogonalEdgeStyle;rounded=0;orthogonalLoop=1;jettySize=auto;html=1;exitX=0.5;exitY=1;exitDx=0;exitDy=0;entryX=0;entryY=0.5;entryDx=0;entryDy=0;" edge="1" parent="1" source="H5y6Pi-Pe29ZSDLJuI9i-127" target="H5y6Pi-Pe29ZSDLJuI9i-128">
          <mxGeometry relative="1" as="geometry" />
        </mxCell>
        <mxCell id="H5y6Pi-Pe29ZSDLJuI9i-126" style="edgeStyle=orthogonalEdgeStyle;rounded=0;orthogonalLoop=1;jettySize=auto;html=1;exitX=0.5;exitY=1;exitDx=0;exitDy=0;entryX=0;entryY=0.5;entryDx=0;entryDy=0;" edge="1" parent="1" source="H5y6Pi-Pe29ZSDLJuI9i-127" target="H5y6Pi-Pe29ZSDLJuI9i-129">
          <mxGeometry relative="1" as="geometry">
            <Array as="points">
              <mxPoint x="1725" y="551" />
              <mxPoint x="1640" y="551" />
              <mxPoint x="1640" y="681" />
            </Array>
          </mxGeometry>
        </mxCell>
        <mxCell id="H5y6Pi-Pe29ZSDLJuI9i-127" value="선배들의 Live TALK" style="rounded=1;fillColor=#23445D;gradientColor=none;strokeColor=none;fontColor=#FFFFFF;fontStyle=1;fontFamily=Tahoma;fontSize=14" vertex="1" parent="1">
          <mxGeometry x="1660" y="471" width="130" height="60" as="geometry" />
        </mxCell>
        <mxCell id="H5y6Pi-Pe29ZSDLJuI9i-128" value="유투브" style="rounded=1;fillColor=#23445D;gradientColor=none;strokeColor=none;fontColor=#FFFFFF;fontStyle=1;fontFamily=Tahoma;fontSize=14" vertex="1" parent="1">
          <mxGeometry x="1660" y="561" width="130" height="60" as="geometry" />
        </mxCell>
        <mxCell id="H5y6Pi-Pe29ZSDLJuI9i-129" value="멘토관리" style="rounded=1;fillColor=#23445D;gradientColor=none;strokeColor=none;fontColor=#FFFFFF;fontStyle=1;fontFamily=Tahoma;fontSize=14" vertex="1" parent="1">
          <mxGeometry x="1660" y="651" width="130" height="60" as="geometry" />
        </mxCell>
        <mxCell id="H5y6Pi-Pe29ZSDLJuI9i-130" style="edgeStyle=orthogonalEdgeStyle;rounded=0;orthogonalLoop=1;jettySize=auto;html=1;exitX=0.5;exitY=1;exitDx=0;exitDy=0;entryX=0.5;entryY=0;entryDx=0;entryDy=0;" edge="1" parent="1" source="H5y6Pi-Pe29ZSDLJuI9i-132" target="H5y6Pi-Pe29ZSDLJuI9i-134">
          <mxGeometry relative="1" as="geometry" />
        </mxCell>
        <mxCell id="H5y6Pi-Pe29ZSDLJuI9i-132" value="유학준비 CLASS" style="rounded=1;fillColor=#23445D;gradientColor=none;strokeColor=none;fontColor=#FFFFFF;fontStyle=1;fontFamily=Tahoma;fontSize=14" vertex="1" parent="1">
          <mxGeometry x="1885" y="471" width="130" height="60" as="geometry" />
        </mxCell>
        <mxCell id="H5y6Pi-Pe29ZSDLJuI9i-143" style="edgeStyle=orthogonalEdgeStyle;rounded=0;orthogonalLoop=1;jettySize=auto;html=1;exitX=0.5;exitY=1;exitDx=0;exitDy=0;entryX=0.5;entryY=0;entryDx=0;entryDy=0;" edge="1" parent="1" source="H5y6Pi-Pe29ZSDLJuI9i-134" target="H5y6Pi-Pe29ZSDLJuI9i-137">
          <mxGeometry relative="1" as="geometry" />
        </mxCell>
        <mxCell id="H5y6Pi-Pe29ZSDLJuI9i-134" value="줌 CLASS" style="rounded=1;fillColor=#23445D;gradientColor=none;strokeColor=none;fontColor=#FFFFFF;fontStyle=1;fontFamily=Tahoma;fontSize=14" vertex="1" parent="1">
          <mxGeometry x="1885" y="561" width="130" height="60" as="geometry" />
        </mxCell>
        <mxCell id="H5y6Pi-Pe29ZSDLJuI9i-145" value="" style="edgeStyle=orthogonalEdgeStyle;rounded=0;orthogonalLoop=1;jettySize=auto;html=1;" edge="1" parent="1" source="H5y6Pi-Pe29ZSDLJuI9i-137" target="H5y6Pi-Pe29ZSDLJuI9i-144">
          <mxGeometry relative="1" as="geometry" />
        </mxCell>
        <mxCell id="H5y6Pi-Pe29ZSDLJuI9i-137" value="결제" style="rounded=1;fillColor=#23445D;gradientColor=none;strokeColor=none;fontColor=#FFFFFF;fontStyle=1;fontFamily=Tahoma;fontSize=14" vertex="1" parent="1">
          <mxGeometry x="1885" y="648" width="130" height="60" as="geometry" />
        </mxCell>
        <mxCell id="H5y6Pi-Pe29ZSDLJuI9i-138" value="현지 Living Life" style="rounded=1;fillColor=#23445D;gradientColor=none;strokeColor=none;fontColor=#FFFFFF;fontStyle=1;fontFamily=Tahoma;fontSize=14" vertex="1" parent="1">
          <mxGeometry x="2080" y="471" width="130" height="60" as="geometry" />
        </mxCell>
        <mxCell id="H5y6Pi-Pe29ZSDLJuI9i-139" value="유투브" style="rounded=1;fillColor=#23445D;gradientColor=none;strokeColor=none;fontColor=#FFFFFF;fontStyle=1;fontFamily=Tahoma;fontSize=14" vertex="1" parent="1">
          <mxGeometry x="2080" y="561" width="130" height="60" as="geometry" />
        </mxCell>
        <mxCell id="H5y6Pi-Pe29ZSDLJuI9i-140" value="마스터 관리" style="rounded=1;fillColor=#23445D;gradientColor=none;strokeColor=none;fontColor=#FFFFFF;fontStyle=1;fontFamily=Tahoma;fontSize=14" vertex="1" parent="1">
          <mxGeometry x="2080" y="651" width="130" height="60" as="geometry" />
        </mxCell>
        <mxCell id="H5y6Pi-Pe29ZSDLJuI9i-141" value="" style="edgeStyle=elbowEdgeStyle;elbow=horizontal;strokeWidth=2;rounded=0" edge="1" parent="1" source="H5y6Pi-Pe29ZSDLJuI9i-138" target="H5y6Pi-Pe29ZSDLJuI9i-139">
          <mxGeometry x="1290" y="151" width="100" height="100" as="geometry">
            <mxPoint x="1290" y="251" as="sourcePoint" />
            <mxPoint x="1390" y="151" as="targetPoint" />
            <Array as="points">
              <mxPoint x="2060" y="551" />
            </Array>
          </mxGeometry>
        </mxCell>
        <mxCell id="H5y6Pi-Pe29ZSDLJuI9i-142" value="" style="edgeStyle=elbowEdgeStyle;elbow=horizontal;strokeWidth=2;rounded=0" edge="1" parent="1" source="H5y6Pi-Pe29ZSDLJuI9i-138" target="H5y6Pi-Pe29ZSDLJuI9i-140">
          <mxGeometry x="1290" y="151" width="100" height="100" as="geometry">
            <mxPoint x="1290" y="251" as="sourcePoint" />
            <mxPoint x="1390" y="151" as="targetPoint" />
            <Array as="points">
              <mxPoint x="2060" y="591" />
            </Array>
          </mxGeometry>
        </mxCell>
        <mxCell id="H5y6Pi-Pe29ZSDLJuI9i-144" value="예약처리" style="rounded=1;fillColor=#23445D;gradientColor=none;strokeColor=none;fontColor=#FFFFFF;fontStyle=1;fontFamily=Tahoma;fontSize=14" vertex="1" parent="1">
          <mxGeometry x="1885" y="735" width="130" height="60" as="geometry" />
        </mxCell>
        <mxCell id="H5y6Pi-Pe29ZSDLJuI9i-149" value="AI 대화 추천" style="rounded=1;fillColor=#23445D;gradientColor=none;strokeColor=none;fontColor=#FFFFFF;fontStyle=1;fontFamily=Tahoma;fontSize=14" vertex="1" parent="1">
          <mxGeometry x="755" y="473" width="130" height="60" as="geometry" />
        </mxCell>
        <mxCell id="H5y6Pi-Pe29ZSDLJuI9i-150" value="" style="edgeStyle=orthogonalEdgeStyle;rounded=0;orthogonalLoop=1;jettySize=auto;html=1;" edge="1" parent="1" source="H5y6Pi-Pe29ZSDLJuI9i-151" target="H5y6Pi-Pe29ZSDLJuI9i-160">
          <mxGeometry relative="1" as="geometry" />
        </mxCell>
        <mxCell id="H5y6Pi-Pe29ZSDLJuI9i-151" value="AI 질문 n개" style="rounded=1;fillColor=#23445D;gradientColor=none;strokeColor=none;fontColor=#FFFFFF;fontStyle=1;fontFamily=Tahoma;fontSize=14" vertex="1" parent="1">
          <mxGeometry x="755" y="563" width="130" height="60" as="geometry" />
        </mxCell>
        <mxCell id="H5y6Pi-Pe29ZSDLJuI9i-152" style="edgeStyle=orthogonalEdgeStyle;rounded=0;orthogonalLoop=1;jettySize=auto;html=1;exitX=0.5;exitY=1;exitDx=0;exitDy=0;entryX=0.5;entryY=0;entryDx=0;entryDy=0;" edge="1" parent="1" source="H5y6Pi-Pe29ZSDLJuI9i-153" target="H5y6Pi-Pe29ZSDLJuI9i-162">
          <mxGeometry relative="1" as="geometry">
            <mxPoint x="990" y="563" as="targetPoint" />
          </mxGeometry>
        </mxCell>
        <mxCell id="H5y6Pi-Pe29ZSDLJuI9i-153" value="유학 선배 찾기" style="rounded=1;fillColor=#23445D;gradientColor=none;strokeColor=none;fontColor=#FFFFFF;fontStyle=1;fontFamily=Tahoma;fontSize=14" vertex="1" parent="1">
          <mxGeometry x="925" y="473" width="130" height="60" as="geometry" />
        </mxCell>
        <mxCell id="H5y6Pi-Pe29ZSDLJuI9i-154" style="edgeStyle=orthogonalEdgeStyle;rounded=0;orthogonalLoop=1;jettySize=auto;html=1;exitX=0.5;exitY=1;exitDx=0;exitDy=0;entryX=0.5;entryY=0;entryDx=0;entryDy=0;" edge="1" parent="1" source="H5y6Pi-Pe29ZSDLJuI9i-155" target="H5y6Pi-Pe29ZSDLJuI9i-162">
          <mxGeometry relative="1" as="geometry" />
        </mxCell>
        <mxCell id="H5y6Pi-Pe29ZSDLJuI9i-155" value="해외대학 교직원 찾기" style="rounded=1;fillColor=#23445D;gradientColor=none;strokeColor=none;fontColor=#FFFFFF;fontStyle=1;fontFamily=Tahoma;fontSize=14" vertex="1" parent="1">
          <mxGeometry x="1095" y="473" width="150" height="60" as="geometry" />
        </mxCell>
        <mxCell id="H5y6Pi-Pe29ZSDLJuI9i-156" style="edgeStyle=orthogonalEdgeStyle;rounded=0;orthogonalLoop=1;jettySize=auto;html=1;exitX=0.5;exitY=1;exitDx=0;exitDy=0;entryX=1;entryY=0.5;entryDx=0;entryDy=0;" edge="1" parent="1" source="H5y6Pi-Pe29ZSDLJuI9i-157" target="H5y6Pi-Pe29ZSDLJuI9i-162">
          <mxGeometry relative="1" as="geometry" />
        </mxCell>
        <mxCell id="H5y6Pi-Pe29ZSDLJuI9i-157" value="맘 찾기" style="rounded=1;fillColor=#23445D;gradientColor=none;strokeColor=none;fontColor=#FFFFFF;fontStyle=1;fontFamily=Tahoma;fontSize=14" vertex="1" parent="1">
          <mxGeometry x="1275" y="473" width="130" height="60" as="geometry" />
        </mxCell>
        <mxCell id="H5y6Pi-Pe29ZSDLJuI9i-158" value="" style="edgeStyle=elbowEdgeStyle;elbow=vertical;rounded=0;strokeWidth=2" edge="1" parent="1" source="H5y6Pi-Pe29ZSDLJuI9i-149" target="H5y6Pi-Pe29ZSDLJuI9i-151">
          <mxGeometry x="675" y="153" width="100" height="100" as="geometry">
            <mxPoint x="675" y="253" as="sourcePoint" />
            <mxPoint x="775" y="153" as="targetPoint" />
          </mxGeometry>
        </mxCell>
        <mxCell id="H5y6Pi-Pe29ZSDLJuI9i-159" value="" style="edgeStyle=orthogonalEdgeStyle;rounded=0;orthogonalLoop=1;jettySize=auto;html=1;" edge="1" parent="1" source="H5y6Pi-Pe29ZSDLJuI9i-160" target="H5y6Pi-Pe29ZSDLJuI9i-162">
          <mxGeometry relative="1" as="geometry" />
        </mxCell>
        <mxCell id="H5y6Pi-Pe29ZSDLJuI9i-160" value="최종 멘토 리스트" style="whiteSpace=wrap;html=1;fontSize=14;fontFamily=Tahoma;fillColor=#23445D;strokeColor=none;fontColor=#FFFFFF;rounded=1;gradientColor=none;fontStyle=1;" vertex="1" parent="1">
          <mxGeometry x="760" y="665" width="120" height="60" as="geometry" />
        </mxCell>
        <mxCell id="H5y6Pi-Pe29ZSDLJuI9i-161" value="" style="edgeStyle=orthogonalEdgeStyle;rounded=0;orthogonalLoop=1;jettySize=auto;html=1;" edge="1" parent="1" source="H5y6Pi-Pe29ZSDLJuI9i-162">
          <mxGeometry relative="1" as="geometry">
            <mxPoint x="1080" y="755" as="targetPoint" />
          </mxGeometry>
        </mxCell>
        <mxCell id="H5y6Pi-Pe29ZSDLJuI9i-167" value="" style="edgeStyle=orthogonalEdgeStyle;rounded=0;orthogonalLoop=1;jettySize=auto;html=1;" edge="1" parent="1" source="H5y6Pi-Pe29ZSDLJuI9i-162" target="H5y6Pi-Pe29ZSDLJuI9i-166">
          <mxGeometry relative="1" as="geometry" />
        </mxCell>
        <mxCell id="H5y6Pi-Pe29ZSDLJuI9i-162" value="프로필" style="whiteSpace=wrap;html=1;fontSize=14;fontFamily=Tahoma;fillColor=#23445D;strokeColor=none;fontColor=#FFFFFF;rounded=1;gradientColor=none;fontStyle=1;" vertex="1" parent="1">
          <mxGeometry x="1020" y="665" width="120" height="60" as="geometry" />
        </mxCell>
        <mxCell id="H5y6Pi-Pe29ZSDLJuI9i-164" style="edgeStyle=orthogonalEdgeStyle;rounded=0;orthogonalLoop=1;jettySize=auto;html=1;entryX=1;entryY=0.5;entryDx=0;entryDy=0;" edge="1" parent="1" source="H5y6Pi-Pe29ZSDLJuI9i-163" target="H5y6Pi-Pe29ZSDLJuI9i-162">
          <mxGeometry relative="1" as="geometry">
            <Array as="points">
              <mxPoint x="1486" y="695" />
            </Array>
          </mxGeometry>
        </mxCell>
        <mxCell id="H5y6Pi-Pe29ZSDLJuI9i-163" value="마스터 찾기" style="rounded=1;fillColor=#23445D;gradientColor=none;strokeColor=none;fontColor=#FFFFFF;fontStyle=1;fontFamily=Tahoma;fontSize=14" vertex="1" parent="1">
          <mxGeometry x="1421" y="471" width="130" height="60" as="geometry" />
        </mxCell>
        <mxCell id="H5y6Pi-Pe29ZSDLJuI9i-166" value="대화하기" style="whiteSpace=wrap;html=1;fontSize=14;fontFamily=Tahoma;fillColor=#23445D;strokeColor=none;fontColor=#FFFFFF;rounded=1;gradientColor=none;fontStyle=1;" vertex="1" parent="1">
          <mxGeometry x="1020" y="758" width="120" height="60" as="geometry" />
        </mxCell>
      </root>
    </mxGraphModel>
  </diagram>
</mxfile>
